<svg xmlns="http://www.w3.org/2000/svg" viewBox="0 0 800 450">
  <defs>
    <linearGradient id="sky1" x1="0%" y1="0%" x2="0%" y2="100%">
      <stop offset="0%" stop-color="#88c0df" />
      <stop offset="100%" stop-color="#3a6b92" />
    </linearGradient>
    <linearGradient id="river1" x1="0%" y1="0%" x2="100%" y2="0%">
      <stop offset="0%" stop-color="#3eb5e5" />
      <stop offset="100%" stop-color="#2a6ab2" />
    </linearGradient>
  </defs>
  <rect width="800" height="450" fill="url(#sky1)" />
  <circle cx="140" cy="100" r="42" fill="#fceec0" opacity="0.75" />
  <path d="M0,300 L120,220 L220,280 L320,210 L460,310 L640,220 L800,320 L800,450 L0,450 Z" fill="#547c70" opacity="0.9" />
  <path d="M0,280 L100,200 L200,260 L320,180 L450,260 L580,210 L680,260 L800,200 L800,450 L0,450 Z" fill="#8aa795" opacity="0.85" />
  <path d="M0,450 C140,360 260,340 380,350 C520,360 620,300 800,330 L800,450 Z" fill="url(#river1)" />
</svg>
